# xmcd
#
# Track frame offsets:
#	150
#	13215
#	26204
#	44003
#	61011
#	75916
#	91998
#	107208
#	124519
#	136850
#	153353
#	169681
#	184324
#	201688
#	217945
#	233956
#	252113
#	268730
#	281126
#	297464
#
# Disc length: 4123 seconds
#
# Revision: 0
# Processed by: cddbd v1.5.2PL0 Copyright (c) Steve Scherf et al.
# Submitted via: EasyCDDAExtractor 16.0.1.1
#
DISCID=28101914
DTITLE=Nisse Hellberg - Tufft Jobb_Nisse Hellbergs Bästa 1994-2010
DYEAR=1900
DGENRE=Blues
TTITLE0=Kalla Det Drömmar Om du Vill
TTITLE1=Tufft Jobb
TTITLE2=En Doft Av Läder
TTITLE3=Snackbar Blues
TTITLE4=Lyckliga Gatan
TTITLE5=Liten Blå Syster
TTITLE6=Håller Min Dörr På Glänt
TTITLE7=Stjärnan I Mitt Liv
TTITLE8=En Stad Som Aldrig Vaknar
TTITLE9=M/S Colinda
TTITLE10=Bok I Retur
TTITLE11=Kul Att Ses Tack Och Adjö
TTITLE12=När Det Regnar Silver Och Guld
TTITLE13=Det Är Nå't Magiskt Med Dej
TTITLE14=Alltid Hem, Hem, Hem
TTITLE15=Blues ABC
TTITLE16=Min Lycka Har Vänt
TTITLE17=Humbugpiller
TTITLE18=Helt NY Stil
TTITLE19=Hon Har Nåt Man Inte Skojar Bort
EXTD=
EXTT0=
EXTT1=
EXTT2=
EXTT3=
EXTT4=
EXTT5=
EXTT6=
EXTT7=
EXTT8=
EXTT9=
EXTT10=
EXTT11=
EXTT12=
EXTT13=
EXTT14=
EXTT15=
EXTT16=
EXTT17=
EXTT18=
EXTT19=
PLAYORDER=
